<svg xmlns="http://www.w3.org/2000/svg" viewBox="0 0 320 64" role="img" aria-label="Tri-State Grill Cleaning">
  <style>
    .wordmark { font-family: "Oswald", "Helvetica Neue", Arial, sans-serif; }
    .lockup-1 { font-weight: 700; font-size: 24px; letter-spacing: 0.06em; fill: #1A3055; }
    .lockup-2 { font-weight: 500; font-size: 11px; letter-spacing: 0.32em; fill: #6B6B67; }
    .flame    { fill: #8B1F2F; }
    .flame-inner { fill: #1A3055; opacity: 0.6; }
  </style>
  <g transform="translate(8 8)">
    <path class="flame" d="M24 0c-2 6-8 9-8 18 0 7 5 12 12 12s12-5 12-12c0-6-3-9-6-12 1 3-1 6-3 6 2-4 0-9-3-12-1 3-3 3-4 0z"/>
    <path class="flame-inner" d="M24 12c-1 3-4 5-4 9 0 4 3 7 7 7s7-3 7-7c0-3-2-4-3-6 0 2-1 3-3 3 1-2 0-4-2-6-1 1-1 1-2 0z"/>
  </g>
  <text x="64" y="30" class="wordmark lockup-1">TRI-STATE</text>
  <text x="64" y="50" class="wordmark lockup-2">GRILL · CLEANING</text>
</svg>
